<?xml version="1.0" encoding="UTF-8" standalone="no"?>
<svg
   xmlns:dc="http://purl.org/dc/elements/1.1/"
   xmlns:cc="http://creativecommons.org/ns#"
   xmlns:rdf="http://www.w3.org/1999/02/22-rdf-syntax-ns#"
   xmlns:svg="http://www.w3.org/2000/svg"
   xmlns="http://www.w3.org/2000/svg"
   xmlns:xlink="http://www.w3.org/1999/xlink"
   xmlns:sodipodi="http://sodipodi.sourceforge.net/DTD/sodipodi-0.dtd"
   xmlns:inkscape="http://www.inkscape.org/namespaces/inkscape"
   sodipodi:docname="balloons.svg"
   inkscape:version="1.0 (4035a4f, 2020-05-01)"
   id="svg8"
   version="1.1"
   viewBox="0 0 120 103"
   height="297mm"
   width="210mm">
   <!-- <rect height="100%" width="100%" fill="white" /> -->
  <defs
     id="defs2">
    <linearGradient
       id="f2f4f6e9-6b95-42bc-91e2-935d3f95e99d"
       x1="739.11"
       y1="600.75"
       x2="739.11"
       y2="35"
       gradientUnits="userSpaceOnUse">
      <stop
         offset="0"
         stop-color="gray"
         stop-opacity="0.25"
         id="stop10" />
      <stop
         offset="0.54"
         stop-color="gray"
         stop-opacity="0.12"
         id="stop12" />
      <stop
         offset="1"
         stop-color="gray"
         stop-opacity="0.1"
         id="stop14" />
    </linearGradient>
    <linearGradient
       gradientTransform="matrix(0.12120533,0,0,0.12120533,-1.318714,-4.073711)"
       id="f3ab6348-f00d-4f48-ac7c-85d02bfc6ffb"
       x1="686.68"
       y1="717.39"
       x2="686.68"
       y2="670.55"
       xlink:href="#f2f4f6e9-6b95-42bc-91e2-935d3f95e99d" />
    <linearGradient
       gradientTransform="matrix(0.12120533,0,0,0.12120533,-1.318714,-4.073711)"
       id="0b05ffbc-780b-4703-ab6e-f12613b08fc6"
       x1="645.13"
       y1="725.98"
       x2="645.13"
       y2="664.77"
       xlink:href="#f2f4f6e9-6b95-42bc-91e2-935d3f95e99d" />
    <linearGradient
       gradientTransform="matrix(0.12120533,0,0,0.12120533,0,-1.77081)"
       id="fefdaf25-1efa-4566-a839-7466210dd781"
       x1="748.64"
       y1="691.12"
       x2="748.64"
       y2="649.87"
       xlink:href="#f2f4f6e9-6b95-42bc-91e2-935d3f95e99d" />
    <linearGradient
       gradientTransform="matrix(0.12120533,0,0,0.12120533,-1.318714,-4.073711)"
       id="00faf9d1-f067-4649-a9f7-133b0e619575"
       x1="726.3"
       y1="801.01"
       x2="726.3"
       y2="704.54"
       xlink:href="#f2f4f6e9-6b95-42bc-91e2-935d3f95e99d" />
    <linearGradient
       gradientTransform="matrix(0.12120533,0,0,0.12120533,-1.318714,-4.073711)"
       id="e0f12371-53e2-4b63-954f-7529306c0fcf"
       x1="765.68"
       y1="709.46"
       x2="765.68"
       y2="663.19"
       xlink:href="#f2f4f6e9-6b95-42bc-91e2-935d3f95e99d" />
    <linearGradient
       gradientTransform="matrix(0.12120533,0,0,0.12120533,0,-1.77081)"
       id="0828e378-0415-49ac-805e-ffac983dd77f"
       x1="725"
       y1="858"
       x2="725"
       y2="712.51"
       xlink:href="#f2f4f6e9-6b95-42bc-91e2-935d3f95e99d" />
    <linearGradient
       gradientTransform="matrix(0.12120533,0,0,0.12120533,-1.318714,-4.073711)"
       id="a59f3b9d-1771-4339-a46e-b16d2b7b7a75"
       x1="325.86"
       y1="102.02"
       x2="325.86"
       y2="41.73"
       xlink:href="#f2f4f6e9-6b95-42bc-91e2-935d3f95e99d" />
    <linearGradient
       gradientTransform="matrix(0.12120533,0,0,0.12120533,0,-1.77081)"
       id="127b93fc-e9a8-4a28-b3e8-ddf2259882c5"
       x1="314.63"
       y1="112.46"
       x2="314.63"
       y2="96.95"
       xlink:href="#f2f4f6e9-6b95-42bc-91e2-935d3f95e99d" />
    <linearGradient
       gradientTransform="matrix(0.12120533,0,0,0.12120533,-1.318714,-4.073711)"
       id="0726a656-e16d-4980-b3fe-a86ba469ed49"
       x1="96.86"
       y1="558.16"
       x2="96.86"
       y2="473.87"
       xlink:href="#f2f4f6e9-6b95-42bc-91e2-935d3f95e99d" />
    <linearGradient
       gradientTransform="matrix(0.12120533,0,0,0.12120533,0,-1.77081)"
       id="09a3f343-371f-47c8-af4b-b7896fe83138"
       x1="85.49"
       y1="580.32"
       x2="85.49"
       y2="558.64"
       xlink:href="#f2f4f6e9-6b95-42bc-91e2-935d3f95e99d" />
    <linearGradient
       gradientTransform="matrix(0.12120533,0,0,0.12120533,-1.318714,-4.073711)"
       id="91620f7c-415a-4efb-8775-05b0b41b95e1"
       x1="401.86"
       y1="498.21"
       x2="401.86"
       y2="402"
       xlink:href="#f2f4f6e9-6b95-42bc-91e2-935d3f95e99d" />
    <linearGradient
       gradientTransform="matrix(0.12120533,0,0,0.12120533,0,-1.77081)"
       id="1ac82200-36c7-4144-8a58-4670deda2f7e"
       x1="390.42"
       y1="526.19"
       x2="390.42"
       y2="501.45"
       xlink:href="#f2f4f6e9-6b95-42bc-91e2-935d3f95e99d" />
    <linearGradient
       gradientTransform="matrix(0.12120533,0,0,0.12120533,-1.318714,-4.073711)"
       id="be26d75a-0455-4f88-8e02-7405c5fe6a65"
       x1="281.25"
       y1="152.04"
       x2="281.25"
       y2="80.66"
       xlink:href="#f2f4f6e9-6b95-42bc-91e2-935d3f95e99d" />
    <linearGradient
       gradientTransform="matrix(0.12120533,0,0,0.12120533,0,-1.77081)"
       id="0b2f09ef-1575-4fe8-8a39-bc8009e41251"
       x1="269.97"
       y1="167.89"
       x2="269.97"
       y2="149.53"
       xlink:href="#f2f4f6e9-6b95-42bc-91e2-935d3f95e99d" />
    <linearGradient
       gradientTransform="matrix(0.12120533,0,0,0.12120533,-1.318714,-4.073711)"
       id="e4790bd4-5801-4457-b473-8cffc98e274c"
       x1="35.42"
       y1="97.02"
       x2="35.42"
       y2="46.61"
       xlink:href="#f2f4f6e9-6b95-42bc-91e2-935d3f95e99d" />
    <linearGradient
       gradientTransform="matrix(0.12120533,0,0,0.12120533,0,-1.77081)"
       id="3d7619d0-4e5d-43de-b852-961e26921f74"
       x1="24.26"
       y1="102.64"
       x2="24.26"
       y2="89.68"
       xlink:href="#f2f4f6e9-6b95-42bc-91e2-935d3f95e99d" />
    <linearGradient
       gradientTransform="matrix(0.12120533,0,0,0.12120533,-1.318714,-4.073711)"
       id="13b49d86-3a6c-4373-8a2b-23927da3a66d"
       x1="452.42"
       y1="84.02"
       x2="452.42"
       y2="33.61"
       xlink:href="#f2f4f6e9-6b95-42bc-91e2-935d3f95e99d" />
    <linearGradient
       gradientTransform="matrix(0.12120533,0,0,0.12120533,0,-1.77081)"
       id="e13d1787-a849-404d-9971-b1babf765573"
       x1="441.26"
       y1="89.64"
       x2="441.26"
       y2="76.68"
       xlink:href="#f2f4f6e9-6b95-42bc-91e2-935d3f95e99d" />
    <linearGradient
       gradientTransform="matrix(0.12120533,0,0,0.12120533,-1.318714,-4.073711)"
       id="8d0e9b9d-b502-4368-bee2-132b20c20719"
       x1="102.82"
       y1="287.6"
       x2="102.82"
       y2="212.78"
       xlink:href="#f2f4f6e9-6b95-42bc-91e2-935d3f95e99d" />
    <linearGradient
       gradientTransform="matrix(0.12120533,0,0,0.12120533,0,-1.77081)"
       id="2bbe2ca3-b086-4129-9122-2e4a5aa8bf64"
       x1="91.51"
       y1="305.14"
       x2="91.51"
       y2="285.9"
       xlink:href="#f2f4f6e9-6b95-42bc-91e2-935d3f95e99d" />
    <linearGradient
       gradientTransform="matrix(0.12120533,0,0,0.12120533,16.134906,48.988468)"
       id="6be94b36-c083-4e0b-93be-f3da3b19fa1e"
       x1="999.82"
       y1="89.49"
       x2="999.82"
       y2="19"
       xlink:href="#f2f4f6e9-6b95-42bc-91e2-935d3f95e99d" />
    <linearGradient
       gradientTransform="matrix(0.12120533,0,0,0.12120533,17.45362,51.291369)"
       id="cd7958c8-0c10-490b-9e34-7b85f0d28caa"
       x1="988.54"
       y1="104.92"
       x2="988.54"
       y2="86.79"
       xlink:href="#f2f4f6e9-6b95-42bc-91e2-935d3f95e99d" />
    <linearGradient
       gradientTransform="matrix(0.12120533,0,0,0.12120533,16.134906,48.988468)"
       id="de1c6a66-0b91-463d-a557-a0141dbc776a"
       x1="1136.82"
       y1="98.6"
       x2="1136.82"
       y2="23.78"
       xlink:href="#f2f4f6e9-6b95-42bc-91e2-935d3f95e99d" />
    <linearGradient
       gradientTransform="matrix(0.12120533,0,0,0.12120533,17.45362,51.291369)"
       id="1fff592f-6693-4eb3-9171-bb32ff9687db"
       x1="1125.51"
       y1="116.14"
       x2="1125.51"
       y2="96.9"
       xlink:href="#f2f4f6e9-6b95-42bc-91e2-935d3f95e99d" />
    <linearGradient
       gradientTransform="matrix(0.12120533,0,0,0.12120533,16.134906,48.988468)"
       id="4e6c8e0b-171b-414f-b772-a9b03415ed1d"
       x1="1070.86"
       y1="285.65"
       x2="1070.86"
       y2="219"
       xlink:href="#f2f4f6e9-6b95-42bc-91e2-935d3f95e99d" />
    <linearGradient
       gradientTransform="matrix(0.12120533,0,0,0.12120533,17.45362,51.291369)"
       id="9eb5e881-07ee-4ce5-baa7-4927dd5ad0d0"
       x1="1059.6"
       y1="299.19"
       x2="1059.6"
       y2="282.05"
       xlink:href="#f2f4f6e9-6b95-42bc-91e2-935d3f95e99d" />
    <linearGradient
       gradientTransform="matrix(0.12120533,0,0,0.12120533,16.134906,48.988468)"
       id="b47c5690-0072-4895-bfce-7e12bed9c37f"
       x1="1140.25"
       y1="492.61"
       x2="1140.25"
       y2="419"
       xlink:href="#f2f4f6e9-6b95-42bc-91e2-935d3f95e99d" />
    <linearGradient
       gradientTransform="matrix(0.12120533,0,0,0.12120533,17.45362,51.291369)"
       id="9c3c48fe-271f-491e-9bd0-9e0c46ee695c"
       x1="1128.95"
       y1="509.55"
       x2="1128.95"
       y2="490.62"
       xlink:href="#f2f4f6e9-6b95-42bc-91e2-935d3f95e99d" />
    <linearGradient
       gradientTransform="matrix(0.12120533,0,0,0.12120533,-1.318714,-4.073711)"
       y2="35"
       x2="739.11"
       y1="600.75"
       x1="739.11"
       gradientUnits="userSpaceOnUse"
       id="linearGradient805"
       xlink:href="#f2f4f6e9-6b95-42bc-91e2-935d3f95e99d"
       inkscape:collect="always" />
  </defs>
  <sodipodi:namedview
     inkscape:window-maximized="0"
     inkscape:window-y="109"
     inkscape:window-x="1570"
     inkscape:window-height="755"
     inkscape:window-width="1252"
     showgrid="false"
     inkscape:document-rotation="0"
     inkscape:current-layer="layer1"
     inkscape:document-units="mm"
     inkscape:cy="607.5834"
     inkscape:cx="205.56106"
     inkscape:zoom="0.37061405"
     inkscape:pageshadow="2"
     inkscape:pageopacity="0.0"
     borderopacity="1.0"
     bordercolor="#666666"
     pagecolor="#ffffff"
     id="base" />
  <metadata
     id="metadata5">
    <rdf:RDF>
      <cc:Work
         rdf:about="">
        <dc:format>image/svg+xml</dc:format>
        <dc:type
           rdf:resource="http://purl.org/dc/dcmitype/StillImage" />
        <dc:title></dc:title>
      </cc:Work>
    </rdf:RDF>
  </metadata>
  <g
     id="layer1"
     inkscape:groupmode="layer"
     inkscape:label="Layer 1">
    <path
       id="path49"
       fill="url(#f2f4f6e9-6b95-42bc-91e2-935d3f95e99d)"
       d="m 121.64894,34.453827 c 0,18.935904 -15.81851,34.285354 -32.6612,34.285354 -16.842691,0 -34.105967,-15.34945 -34.105967,-34.285354 0,-18.935908 17.263276,-34.285351 34.105967,-34.285351 16.84269,0 32.6612,15.350655 32.6612,34.285351 z"
       style="fill:url(#linearGradient805);stroke-width:0.121205" />
    <path
       style="fill:#6c5353;stroke-width:0.121205"
       id="path51"
       fill="#6c63ff"
       d="m 120.08539,34.453827 c 0,18.048684 -15.07794,32.680594 -31.1328,32.680594 -16.054856,0 -32.507268,-14.6307 -32.507268,-32.680594 0,-18.049897 16.453624,-32.680593 32.508478,-32.680593 16.05486,0 31.13159,14.636756 31.13159,32.680593 z" />
    <path
       id="path53"
       fill="url(#f3ab6348-f00d-4f48-ac7c-85d02bfc6ffb)"
       d="m 84.20377,79.264651 c 0,-1.14054 -1.02661,-2.06049 -2.293208,-2.06049 -1.266596,0 -2.293205,0.92479 -2.293205,2.06049 0,0.96116 0.727232,1.76717 1.719904,1.99746 v 1.61567 h 1.146602 v -1.61567 c 0.989037,-0.23029 1.719907,-1.03509 1.719907,-1.99746 z"
       style="fill:url(#f3ab6348-f00d-4f48-ac7c-85d02bfc6ffb);stroke-width:0.121205" />
    <path
       id="path55"
       fill="url(#0b05ffbc-780b-4703-ab6e-f12613b08fc6)"
       d="m 75.944836,79.522821 -2.322294,-2.3223 -0.04606,0.0461 v -0.0109 c -0.242411,-0.51391 -0.654509,-0.83147 -0.911465,-0.70905 -0.256955,0.12242 -0.266651,0.63996 -0.0206,1.15388 a 1.9671625,1.9671625 0 0 0 0.187868,0.31392 l -0.242411,0.24241 c 0,0 5.939061,5.93906 8.258931,5.67847 l 0.437552,-1.61931 c 0,0 -1.985344,0.0654 -5.341519,-2.77317 z"
       style="fill:url(#0b05ffbc-780b-4703-ab6e-f12613b08fc6);stroke-width:0.121205" />
    <circle
       style="stroke-width:0.121205"
       id="circle57"
       fill="#f8c198"
       r="1.9101961"
       cy="79.334946"
       cx="81.854813" />
    <rect
       style="stroke-width:0.121205"
       id="rect59"
       fill="#f8c198"
       height="1.9101961"
       width="0.95509803"
       y="80.768799"
       x="81.377258" />
    <rect
       style="stroke-width:0.121205"
       id="rect61"
       fill="#605b38"
       ry="0.96964264"
       rx="0.96964264"
       height="8.5970945"
       width="3.8203921"
       y="81.962677"
       x="79.944611" />
    <path
       style="stroke-width:0.121205"
       id="path63"
       fill="#605b38"
       d="m 81.065761,82.136001 c 0,0 -1.837473,0.0654 -4.942754,-2.56228 l -2.14897,-2.14897 -0.955098,0.9551 c 0,0 5.493026,5.49303 7.635936,5.25425 z" />
    <ellipse
       style="stroke-width:0.121205"
       id="ellipse65"
       fill="#f8c198"
       transform="rotate(-25.56)"
       ry="0.95509797"
       rx="0.47754899"
       cy="101.77369"
       cx="32.795441" />
    <circle
       id="circle67"
       fill="url(#fefdaf25-1efa-4566-a839-7466210dd781)"
       r="2.5004659"
       cy="79.496155"
       cx="90.739159"
       style="fill:url(#fefdaf25-1efa-4566-a839-7466210dd781);stroke-width:0.121205" />
    <circle
       style="stroke-width:0.121205"
       id="circle69"
       fill="#f8c198"
       r="2.2604795"
       cy="79.496155"
       cx="90.739159" />
    <rect
       style="stroke-width:0.121205"
       id="rect71"
       fill="#f8c198"
       height="2.2604795"
       width="1.1308457"
       y="81.191818"
       x="90.173126" />
    <path
       id="path73"
       fill="url(#00faf9d1-f067-4649-a9f7-133b0e619575)"
       d="m 92.30756,82.413561 h -2.79985 a 0.95631005,0.95631005 0 0 0 -0.78056,0.40725 c -2.12715,0.27635 -6.503878,0.70299 -6.94749,-0.40725 l -0.203625,0.15272 a 2.2374504,2.2374504 0 0 0 -0.149082,-0.40604 c -0.281197,-0.58663 -0.746625,-0.94903 -1.039942,-0.80844 -0.293317,0.1406 -0.304225,0.72724 -0.02303,1.31629 a 2.0968522,2.0968522 0 0 0 0.363616,0.53573 l -0.121205,0.0933 c 0,0 4.476118,1.88474 7.949858,1.6496 v 7.11112 a 0.95873416,0.95873416 0 0 0 0.95631,0.95631 h 2.79984 a 0.95873416,0.95873416 0 0 0 0.95631,-0.95631 v -8.68921 a 0.95873416,0.95873416 0 0 0 -0.96115,-0.9551 z"
       style="fill:url(#00faf9d1-f067-4649-a9f7-133b0e619575);stroke-width:0.121205" />
    <rect
       style="stroke-width:0.121205"
       id="rect75"
       fill="#53ad9b"
       ry="0.96964264"
       rx="0.96964264"
       height="10.172764"
       width="4.5209589"
       y="82.605072"
       x="88.477463" />
    <path
       style="stroke-width:0.121205"
       id="path77"
       fill="#53ad9b"
       d="m 89.74891,82.836571 c 0,0 -7.205656,1.18054 -7.770473,-0.23271 l -1.130846,0.84843 c 0,0 5.369399,2.26048 8.759509,1.41326 3.39011,-0.84723 0.14181,-2.02898 0.14181,-2.02898 z" />
    <ellipse
       style="stroke-width:0.121205"
       id="ellipse79"
       fill="#f8c198"
       transform="rotate(-25.56)"
       ry="1.1308457"
       rx="0.56481677"
       cy="109.52464"
       cx="37.550861" />
    <path
       id="path81"
       fill="url(#e0f12371-53e2-4b63-954f-7529306c0fcf)"
       d="m 88.52959,77.055081 a 0.28604458,0.28604458 0 0 1 0.28362,0.16605 c 0.23271,-0.50907 0.78298,-0.82056 1.33325,-0.89207 0.55028,-0.0715 1.11631,0.0618 1.64597,0.24241 0.67754,0.2315 1.34053,0.55148 1.85081,1.05327 0.51027,0.50179 0.84844,1.21205 0.78904,1.92353 -0.0461,0.52482 -0.29937,1.006 -0.54906,1.46901 -0.15393,0.28725 -0.32119,0.58542 -0.59633,0.75874 -0.57451,0.36362 -1.38901,-0.0206 -1.69687,-0.62542 -0.10181,-0.19999 -0.16484,-0.41815 -0.27756,-0.60602 -0.34059,-0.58664 -1.046,-0.82662 -1.65324,-1.13085 -1.06176,-0.53936 -1.14539,-1.28114 -1.12963,-2.35865 z"
       style="fill:url(#e0f12371-53e2-4b63-954f-7529306c0fcf);stroke-width:0.121205" />
    <rect
       id="rect83"
       fill="url(#0828e378-0415-49ac-805e-ffac983dd77f)"
       height="17.634165"
       width="20.410976"
       y="84.589203"
       x="77.668373"
       style="fill:url(#0828e378-0415-49ac-805e-ffac983dd77f);stroke-width:0.121205" />
    <rect
       style="stroke-width:0.121205"
       id="rect85"
       fill="#f5f5f5"
       height="16.716639"
       width="19.343159"
       y="84.589203"
       x="78.273186" />
    <line
       id="line87"
       stroke-width="0.242411"
       stroke-miterlimit="10"
       stroke="#ad7676"
       fill="none"
       y2="69.31369"
       x2="98.184799"
       y1="84.589203"
       x1="97.377571" />
    <line
       id="line89"
       stroke-width="0.242411"
       stroke-miterlimit="10"
       stroke="#ad7676"
       fill="none"
       y2="69.31369"
       x2="77.658676"
       y1="84.589203"
       x1="78.750732" />
    <path
       style="stroke-width:0.121205"
       id="path91"
       opacity="0.2"
       fill="#ffffff"
       d="m 88.82169,79.382221 a 2.2592674,2.2592674 0 0 1 2.08837,-2.24836 c -0.057,0 -0.11394,-0.008 -0.17211,-0.008 a 2.26048,2.26048 0 0 0 0,4.52096 c 0.0582,0 0.11514,0 0.17211,-0.008 a 2.2592674,2.2592674 0 0 1 -2.08837,-2.25563 z" />
    <path
       style="stroke-width:0.121205"
       id="path93"
       opacity="0.2"
       fill="#ffffff"
       d="m 80.222172,79.153141 a 2.2592674,2.2592674 0 0 1 2.090792,-2.252 c -0.05697,0 -0.113933,-0.008 -0.172112,-0.008 a 2.26048,2.26048 0 0 0 0,4.52096 c 0.05818,0 0.115145,0 0.172112,-0.008 a 2.2592674,2.2592674 0 0 1 -2.090792,-2.25199 z" />
    <path
       style="stroke-width:0.121205"
       id="path95"
       fill="#fccc63"
       d="m 81.477859,80.891221 a 2.2871446,2.2871446 0 0 1 0.341799,0.27878 c 0.406038,0.50542 -0.363616,1.28841 -0.07515,1.87019 0.127265,0.25696 0.430279,0.38786 0.566029,0.63997 0.258173,0.47876 -0.174536,1.17933 0.199988,1.57567 0.100605,0.10545 0.242415,0.16726 0.321195,0.29089 0.15151,0.24241 -0.0606,0.56482 -0.0267,0.84844 0.0424,0.36361 0.43997,0.55754 0.78298,0.68602 0.29211,0.10909 0.67512,0.19635 0.87389,-0.0448 0.0958,-0.1212 0.11394,-0.27998 0.20363,-0.4024 0.16726,-0.22908 0.50421,-0.23029 0.75026,-0.37089 0.3818,-0.21817 0.47513,-0.72723 0.47513,-1.16478 0,-0.43755 -0.0436,-0.9151 0.19635,-1.28478 0.2715,-0.41937 0.8351,-0.57572 1.1066,-0.99509 0.41089,-0.63754 -0.0424,-1.5284 0.2509,-2.22775 0.10181,-0.24242 0.28847,-0.44725 0.34907,-0.70178 0.1006,-0.42059 -0.16848,-0.84844 -0.48482,-1.13085 -0.31635,-0.28241 -0.71148,-0.50421 -0.97934,-0.84844 -0.18787,-0.24241 -0.31029,-0.52724 -0.53209,-0.7345 -0.53815,-0.50179 -1.39386,-0.32241 -2.11261,-0.48482 -0.66542,-0.14424 -1.278721,-0.59997 -1.956259,-0.52361 -0.592694,0.0667 -1.055698,0.5224 -1.469009,0.95267 a 0.76238153,0.76238153 0 0 0 -0.23029,0.35392 c -0.121205,0.58543 0.447248,1.18782 0.696931,1.61688 0.31877,0.57452 0.220594,1.35629 0.751473,1.80111 z" />
    <g
       transform="matrix(0.12120533,0,0,0.12120533,0,-1.77081)"
       id="g109"
       opacity="0.2">
      <path
         id="path97"
         fill="#ffffff"
         transform="translate(-10.88,-19)"
         d="m 673,673.79 c 3.41,-3.55 7.23,-7.31 12.12,-7.86 5.58,-0.63 10.65,3.13 16.14,4.32 5.93,1.29 13,-0.19 17.43,4 1.83,1.71 2.84,4.1 4.39,6.06 2.21,2.79 5.43,4.58 8.08,7 a 12.9,12.9 0 0 1 3.95,5.88 c 0,-0.11 0.07,-0.22 0.1,-0.33 0.83,-3.47 -1.39,-7 -4.05,-9.33 -2.66,-2.33 -5.87,-4.16 -8.08,-7 -1.55,-2 -2.56,-4.35 -4.39,-6.06 -4.44,-4.14 -11.5,-2.66 -17.43,-4 -5.49,-1.19 -10.55,-4.95 -16.14,-4.32 -4.89,0.55 -8.71,4.31 -12.12,7.86 a 6.29,6.29 0 0 0 -1.9,2.92 7.58,7.58 0 0 0 0.13,3.32 7.35,7.35 0 0 1 1.77,-2.46 z" />
      <path
         id="path99"
         fill="#ffffff"
         transform="translate(-10.88,-19)"
         d="m 694.4,743.43 a 9.29,9.29 0 0 0 -0.34,3 4.32,4.32 0 0 0 0.27,1.08 c 0.32,-1.42 0.67,-2.85 0.07,-4.08 z" />
      <path
         id="path101"
         fill="#ffffff"
         transform="translate(-10.88,-19)"
         d="m 690.57,729.59 a 18.28,18.28 0 0 0 -0.12,5 18.73,18.73 0 0 0 0.12,-5 z" />
      <path
         id="path103"
         fill="#ffffff"
         transform="translate(-10.88,-19)"
         d="m 731.69,712.36 a 46.51,46.51 0 0 0 -0.17,-6.52 46.24,46.24 0 0 0 0.17,6.52 z" />
      <path
         id="path105"
         fill="#ffffff"
         transform="translate(-10.88,-19)"
         d="m 719.48,736.82 c 0,-0.36 0,-0.72 0,-1.07 0,-0.18 0,-0.36 0,-0.54 0.01,0.54 0,1.08 0,1.61 z" />
      <path
         id="path107"
         fill="#ffffff"
         transform="translate(-10.88,-19)"
         d="m 686.66,708.42 c -0.72,3.15 -2.55,6.61 -1.65,9.55 0.7,-3.29 2.62,-6.76 1.65,-9.55 z" />
    </g>
    <path
       style="stroke-width:0.121205"
       id="path111"
       fill="#263238"
       d="m 88.70048,77.172641 a 0.26907583,0.26907583 0 0 1 0.26666,0.15636 c 0.21938,-0.48482 0.73692,-0.77329 1.26053,-0.84117 0.52361,-0.0679 1.05206,0.0582 1.55143,0.22908 0.63875,0.21817 1.26296,0.51997 1.74414,0.99267 0.48119,0.47271 0.80238,1.14055 0.74299,1.81808 -0.0436,0.49452 -0.28241,0.94783 -0.51754,1.38417 -0.14545,0.27029 -0.30302,0.55148 -0.5624,0.71511 -0.54178,0.34059 -1.30901,-0.0194 -1.60112,-0.58906 -0.0958,-0.18787 -0.15514,-0.39391 -0.2618,-0.57572 -0.3212,-0.5527 -0.98661,-0.77814 -1.55749,-1.0654 -1.00237,-0.50785 -1.08115,-1.2072 -1.0654,-2.22412 z" />
    <path
       style="stroke-width:0.121205"
       id="path113"
       opacity="0.2"
       fill="#ffffff"
       d="m 88.70048,77.402931 a 0.26907583,0.26907583 0 0 1 0.26666,0.15636 c 0.21938,-0.48482 0.73692,-0.77329 1.26053,-0.84117 0.52361,-0.0679 1.05206,0.0582 1.55143,0.22908 0.63875,0.21817 1.26296,0.51997 1.74414,0.99267 a 2.4241066,2.4241066 0 0 1 0.74542,1.53446 c 0.04,-0.65572 -0.27635,-1.30174 -0.74542,-1.76353 -0.46906,-0.4618 -1.10539,-0.77451 -1.74414,-0.99268 -0.49937,-0.17089 -1.02903,-0.29695 -1.55143,-0.22907 -0.52239,0.0679 -1.04115,0.36361 -1.26053,0.84116 a 0.26907583,0.26907583 0 0 0 -0.26666,-0.15635 c 0,0.0982 0,0.19393 0,0.28604 -0.001,-0.0194 -0.001,-0.0388 0,-0.057 z" />
    <rect
       style="fill:#916f6f;stroke-width:0.121205"
       id="rect115"
       fill="#6c63ff"
       height="2.5222828"
       width="7.2238374"
       y="68.281021"
       x="83.966202" />
    <g
       transform="matrix(0.12120533,0,0,0.12120533,0,-1.77081)"
       id="g119"
       opacity="0.2">
      <path
         id="path117"
         transform="translate(-10.88,-19)"
         d="m 744.79,47.3 c -3.16,0 -6.31,0.09 -9.47,0.23 128.86,5.56 247.41,124 247.41,269.4 0,145.4 -118.56,263.84 -247.41,269.4 3.16,0.14 6.32,0.23 9.47,0.23 132.45,0 256.86,-120.72 256.86,-269.63 C 1001.65,168.02 877.24,47.3 744.79,47.3 Z" />
    </g>
    <g
       transform="matrix(0.12120533,0,0,0.12120533,0,-1.77081)"
       id="g123"
       opacity="0.2">
      <path
         id="path121"
         fill="#ffffff"
         transform="translate(-10.88,-19)"
         d="m 491.71,317.87 c 0,-146.78 131.9,-266.17 262.53,-269.55 -1.89,0 -3.78,-0.08 -5.67,-0.08 -132.45,0 -268.21,120.76 -268.21,269.63 0,148.87 135.76,269.63 268.21,269.63 1.89,0 3.78,0 5.67,-0.08 C 623.62,584 491.71,464.66 491.71,317.87 Z" />
    </g>
    <rect
       style="fill:#916f6f;stroke-width:0.121205"
       id="rect125"
       fill="#6c63ff"
       height="6.7656813"
       width="20.755201"
       y="62.548004"
       x="77.544746" />
    <path
       style="stroke-width:0.121205"
       id="path127"
       opacity="0.2"
       fill="#ffffff"
       d="m 77.543534,4.153707 c 0,0 -24.653164,28.179027 0,60.602664 l 8.141366,-0.0279 c 0,0 -22.475108,-26.786374 -1.03146,-62.60861 l -4.01311,0.915101 z" />
    <path
       style="stroke-width:0.121205"
       id="path129"
       opacity="0.2"
       fill="#ffffff"
       d="m 98.98718,3.723428 c 0,0 24.65317,28.604458 0,61.031733 l -8.14136,-0.0279 c 0,0 22.4751,-27.014242 1.03146,-62.83769 l 4.01068,0.801167 z" />
    <path
       id="path131"
       fill="url(#a59f3b9d-1771-4339-a46e-b16d2b7b7a75)"
       d="m 41.830383,4.637316 c 0,2.018069 -1.730812,3.651917 -3.573133,3.651917 -1.842321,0 -3.731912,-1.636272 -3.731912,-3.653129 0,-2.016857 1.888379,-3.653129 3.731912,-3.653129 1.843533,0 3.573133,1.637484 3.573133,3.654341 z"
       style="fill:url(#a59f3b9d-1771-4339-a46e-b16d2b7b7a75);stroke-width:0.121205" />
    <path
       style="stroke-width:0.121205"
       id="path133"
       fill="#6c63ff"
       d="m 41.659484,4.637316 c 0,1.923529 -1.649605,3.482229 -3.40587,3.482229 -1.756265,0 -3.557376,-1.5587 -3.557376,-3.482229 0,-1.923529 1.801111,-3.482229 3.557376,-3.482229 1.756265,0 3.40587,1.5587 3.40587,3.482229 z" />
    <rect
       id="rect135"
       fill="url(#127b93fc-e9a8-4a28-b3e8-ddf2259882c5)"
       height="1.8786826"
       width="2.2338142"
       y="9.9800463"
       x="37.018532"
       style="fill:url(#127b93fc-e9a8-4a28-b3e8-ddf2259882c5);stroke-width:0.121205" />
    <rect
       style="stroke-width:0.121205"
       id="rect137"
       fill="#6c63ff"
       height="1.7817184"
       width="2.116245"
       y="9.9800463"
       x="37.085194" />
    <line
       id="line139"
       stroke-width="0.242411"
       stroke-miterlimit="10"
       stroke="#ad7676"
       fill="none"
       y2="8.3522577"
       x2="39.263252"
       y1="9.9800463"
       x1="39.174774" />
    <line
       id="line141"
       stroke-width="0.242411"
       stroke-miterlimit="10"
       stroke="#ad7676"
       fill="none"
       y2="8.3522577"
       x2="37.017319"
       y1="9.9800463"
       x1="37.13731" />
    <g
       transform="matrix(0.12120533,0,0,0.12120533,0,-1.77081)"
       id="g149"
       opacity="0.2">
      <path
         id="path143"
         fill="#ffffff"
         transform="translate(-10.88,-19)"
         d="m 321,117.22 a 1,1 0 0 0 0,0.32 0.45,0.45 0 0 0 0,0.11 0.65,0.65 0 0 0 0,-0.43 z" />
      <path
         id="path145"
         fill="#ffffff"
         transform="translate(-10.88,-19)"
         d="m 320.55,115.75 a 1.9,1.9 0 0 0 0,0.53 1.94,1.94 0 0 0 0,-0.53 z" />
      <path
         id="path147"
         fill="#ffffff"
         transform="translate(-10.88,-19)"
         d="m 323.72,116.52 c 0,0 0,-0.08 0,-0.11 v -0.06 c 0,0.06 0,0.11 0,0.17 z" />
    </g>
    <rect
       style="stroke-width:0.121205"
       id="rect151"
       fill="#6c63ff"
       height="0.26907584"
       width="0.79025877"
       y="8.2431765"
       x="37.706978" />
    <g
       transform="matrix(0.12120533,0,0,0.12120533,0,-1.77081)"
       id="g155"
       opacity="0.2">
      <path
         id="path153"
         transform="translate(-10.88,-19)"
         d="m 326.49,43 h -1 c 14.1,0.59 27.07,13.22 27.07,28.71 0,15.49 -13,28.12 -27.07,28.71 h 1 c 14.49,0 28.1,-12.86 28.1,-28.73 C 354.59,55.82 341,43 326.49,43 Z" />
    </g>
    <g
       transform="matrix(0.12120533,0,0,0.12120533,0,-1.77081)"
       id="g159"
       opacity="0.2">
      <path
         id="path157"
         fill="#ffffff"
         transform="translate(-10.88,-19)"
         d="m 298.8,71.87 c 0,-15.64 14.43,-28.36 28.72,-28.72 h -0.62 c -14.49,0 -29.35,12.86 -29.35,28.73 0,15.87 14.85,28.73 29.35,28.73 h 0.62 C 313.23,100.24 298.8,87.52 298.8,71.87 Z" />
    </g>
    <rect
       style="stroke-width:0.121205"
       id="rect161"
       fill="#6c63ff"
       height="0.72117168"
       width="2.2713878"
       y="7.6310887"
       x="37.005199" />
    <path
       style="stroke-width:0.121205"
       id="path163"
       opacity="0.2"
       fill="#ffffff"
       d="m 37.005199,1.408406 c 0,0 -2.69803,3.002256 0,6.45782 h 0.890859 c 0,0 -2.459256,-2.854385 -0.11272,-6.666293 l -0.438764,0.09818 z" />
    <path
       style="stroke-width:0.121205"
       id="path165"
       opacity="0.2"
       fill="#ffffff"
       d="m 39.350522,1.36356 c 0,0 2.698031,3.048314 0,6.503878 h -0.890859 c 0,0 2.459256,-2.878626 0.112721,-6.696594 l 0.438764,0.08605 z" />
    <path
       id="path167"
       fill="url(#0726a656-e16d-4980-b3fe-a86ba469ed49)"
       d="m 15.528827,58.468241 c 0,2.82166 -2.424107,5.1088 -4.996084,5.1088 -2.571977,0 -5.211829,-2.28714 -5.211829,-5.1088 0,-2.82166 2.641064,-5.10881 5.211829,-5.10881 2.570765,0 4.996084,2.28957 4.996084,5.10881 z"
       style="fill:url(#0726a656-e16d-4980-b3fe-a86ba469ed49);stroke-width:0.121205" />
    <path
       style="stroke-width:0.121205"
       id="path169"
       fill="#4d8af0"
       d="m 15.286416,58.468241 c 0,2.68954 -2.302901,4.86882 -4.762157,4.86882 -2.459256,0 -4.969419,-2.1817 -4.969419,-4.86882 0,-2.68712 2.517435,-4.86882 4.969419,-4.86882 2.451984,0 4.762157,2.1817 4.762157,4.86882 z" />
    <rect
       id="rect171"
       fill="url(#09a3f343-371f-47c8-af4b-b7896fe83138)"
       height="2.6277316"
       width="3.1222494"
       y="65.939339"
       x="8.8007193"
       style="fill:url(#09a3f343-371f-47c8-af4b-b7896fe83138);stroke-width:0.121205" />
    <rect
       style="stroke-width:0.121205"
       id="rect173"
       fill="#6c63ff"
       height="2.4907694"
       width="2.958622"
       y="65.939339"
       x="8.8928347" />
    <line
       id="line175"
       stroke-width="0.242411"
       stroke-miterlimit="10"
       stroke="#ad7676"
       fill="none"
       y2="63.664307"
       x2="11.939937"
       y1="65.939339"
       x1="11.816308" />
    <line
       id="line177"
       stroke-width="0.242411"
       stroke-miterlimit="10"
       stroke="#ad7676"
       fill="none"
       y2="63.664307"
       x2="8.7995062"
       y1="65.939339"
       x1="8.9667711" />
    <g
       transform="matrix(0.12120533,0,0,0.12120533,0,-1.77081)"
       id="g185"
       opacity="0.2">
      <path
         id="path179"
         fill="#ffffff"
         transform="translate(-10.88,-19)"
         d="m 90,579.42 a 1.35,1.35 0 0 0 -0.05,0.45 0.63,0.63 0 0 0 0,0.16 0.91,0.91 0 0 0 0.05,-0.61 z" />
      <path
         id="path181"
         fill="#ffffff"
         transform="translate(-10.88,-19)"
         d="m 89.44,577.36 a 2.65,2.65 0 0 0 0,0.74 2.72,2.72 0 0 0 0,-0.74 z" />
      <path
         id="path183"
         fill="#ffffff"
         transform="translate(-10.88,-19)"
         d="m 93.86,578.44 c 0,-0.05 0,-0.11 0,-0.16 v -0.08 c 0,0.08 0,0.16 0,0.24 z" />
    </g>
    <rect
       style="stroke-width:0.121205"
       id="rect187"
       fill="#4d8af0"
       height="0.3757365"
       width="1.1053926"
       y="63.510384"
       x="9.7643003" />
    <g
       transform="matrix(0.12120533,0,0,0.12120533,0,-1.77081)"
       id="g191"
       opacity="0.2">
      <path
         id="path189"
         transform="translate(-10.88,-19)"
         d="m 97.73,475.7 c -0.48,0 -1,0 -1.45,0 19.71,0.83 37.85,18.48 37.85,40.14 0,21.66 -18.13,39.34 -37.85,40.16 0.48,0 1,0 1.45,0 20.26,0 39.29,-18 39.29,-40.17 0,-22.17 -19.02,-40.13 -39.29,-40.13 z" />
    </g>
    <g
       transform="matrix(0.12120533,0,0,0.12120533,0,-1.77081)"
       id="g195"
       opacity="0.2">
      <path
         id="path193"
         fill="#ffffff"
         transform="translate(-10.88,-19)"
         d="m 59,516 c 0,-21.87 20.18,-39.66 40.16,-40.16 h -0.87 c -20.26,0 -41,18 -41,40.17 0,22.17 20.77,40.17 41,40.17 h 0.87 C 79.2,555.67 59,537.88 59,516 Z" />
    </g>
    <rect
       style="stroke-width:0.121205"
       id="rect197"
       fill="#4d8af0"
       height="1.0084283"
       width="3.1755798"
       y="62.655884"
       x="8.7813253" />
    <path
       style="stroke-width:0.121205"
       id="path199"
       opacity="0.2"
       fill="#ffffff"
       d="m 8.781326,53.954551 c 0,0 -3.77191,4.19855 0,9.0298 h 1.245991 c 0,0 -3.438595,-3.99129 -0.157567,-9.33281 l -0.614511,0.13696 z" />
    <path
       style="stroke-width:0.121205"
       id="path201"
       opacity="0.2"
       fill="#ffffff"
       d="m 12.062354,53.891531 c 0,0 3.77191,4.26279 0,9.09039 h -1.24599 c 0,0 3.438595,-4.02886 0.157567,-9.36189 l 0.614511,0.1212 z" />
    <path
       id="path203"
       fill="url(#91620f7c-415a-4efb-8775-05b0b41b95e1)"
       d="m 53.223684,50.480811 c 0,3.22042 -2.762269,5.82997 -5.70271,5.82997 -2.940442,0 -5.954818,-2.61076 -5.954818,-5.82997 0,-3.21922 3.008316,-5.829979 5.948757,-5.829979 2.940442,0 5.708771,2.610759 5.708771,5.829979 z"
       style="fill:url(#91620f7c-415a-4efb-8775-05b0b41b95e1);stroke-width:0.121205" />
    <path
       style="stroke-width:0.121205"
       id="path205"
       fill="#47e6b1"
       d="m 52.944912,50.480811 c 0,3.07013 -2.630155,5.56332 -5.434847,5.56332 -2.804691,0 -5.679682,-2.49319 -5.679682,-5.56332 0,-3.07013 2.872567,-5.557267 5.676046,-5.557267 2.803479,0 5.438483,2.488347 5.438483,5.557267 z" />
    <rect
       id="rect207"
       fill="url(#1ac82200-36c7-4144-8a58-4670deda2f7e)"
       height="2.9986198"
       width="3.5634367"
       y="59.007614"
       x="45.539265"
       style="fill:url(#1ac82200-36c7-4144-8a58-4670deda2f7e);stroke-width:0.121205" />
    <rect
       style="stroke-width:0.121205"
       id="rect209"
       fill="#f2f2f2"
       height="2.8422651"
       width="3.3779926"
       y="59.007614"
       x="45.644714" />
    <line
       id="line211"
       stroke-width="0.242411"
       stroke-miterlimit="10"
       stroke="#ad7676"
       fill="none"
       y2="56.408958"
       x2="49.12088"
       y1="59.007614"
       x1="48.980286" />
    <line
       id="line213"
       stroke-width="0.242411"
       stroke-miterlimit="10"
       stroke="#ad7676"
       fill="none"
       y2="56.408958"
       x2="45.538052"
       y1="59.007614"
       x1="45.728344" />
    <g
       transform="matrix(0.12120533,0,0,0.12120533,0,-1.77081)"
       id="g221"
       opacity="0.2">
      <path
         id="path215"
         fill="#ffffff"
         transform="translate(-10.88,-19)"
         d="m 394.06,522.47 a 1.54,1.54 0 0 0 -0.06,0.51 0.72,0.72 0 0 0 0,0.18 1,1 0 0 0 0.06,-0.69 z" />
      <path
         id="path217"
         fill="#ffffff"
         transform="translate(-10.88,-19)"
         d="m 393.39,520.12 a 3,3 0 0 0 0,0.85 3.1,3.1 0 0 0 0,-0.85 z" />
      <path
         id="path219"
         fill="#ffffff"
         transform="translate(-10.88,-19)"
         d="m 398.44,521.35 c 0,-0.06 0,-0.12 0,-0.18 v -0.09 c 0,0.09 0,0.18 0,0.27 z" />
    </g>
    <rect
       style="stroke-width:0.121205"
       id="rect223"
       fill="#47e6b1"
       height="0.42906687"
       width="1.2617475"
       y="56.234428"
       x="46.638596" />
    <g
       transform="matrix(0.12120533,0,0,0.12120533,0,-1.77081)"
       id="g227"
       opacity="0.2">
      <path
         id="path225"
         transform="translate(-10.88,-19)"
         d="m 402.86,404.09 c -0.55,0 -1.1,0 -1.65,0 22.5,0.95 43.2,21.09 43.2,45.81 0,24.72 -20.7,44.87 -43.2,45.81 0.55,0 1.1,0 1.65,0 23.13,0 44.85,-20.53 44.85,-45.85 0,-25.32 -21.71,-45.77 -44.85,-45.77 z" />
    </g>
    <g
       transform="matrix(0.12120533,0,0,0.12120533,0,-1.77081)"
       id="g231"
       opacity="0.2">
      <path
         id="path229"
         fill="#ffffff"
         transform="translate(-10.88,-19)"
         d="m 358.67,450.1 c 0,-25 23,-45.26 45.84,-45.84 h -1 c -23.13,0 -46.83,20.53 -46.83,45.85 0,25.32 23.71,45.89 46.84,45.89 h 1 c -22.82,-0.63 -45.85,-20.93 -45.85,-45.9 z" />
    </g>
    <rect
       style="stroke-width:0.121205"
       id="rect233"
       fill="#47e6b1"
       height="1.1502385"
       width="3.6240394"
       y="55.25872"
       x="45.517448" />
    <path
       style="stroke-width:0.121205"
       id="path235"
       opacity="0.2"
       fill="#ffffff"
       d="m 45.51745,45.328369 c 0,0 -4.305214,4.792462 0,10.302452 h 1.421738 c 0,0 -3.924628,-4.55489 -0.180596,-10.646675 l -0.700567,0.151507 z" />
    <path
       style="stroke-width:0.121205"
       id="path237"
       opacity="0.2"
       fill="#ffffff"
       d="m 49.261482,45.256858 c 0,0 4.305214,4.865183 0,10.378813 h -1.421738 c 0,0 3.924628,-4.59368 0.180596,-10.686674 l 0.700566,0.136962 z" />
    <path
       id="path239"
       fill="url(#be26d75a-0455-4f88-8e02-7405c5fe6a65)"
       d="m 36.98217,10.028529 c 0,2.388957 -1.996252,4.325818 -4.120981,4.325818 -2.124729,0 -4.302789,-1.939285 -4.302789,-4.325818 0,-2.386533 2.181696,-4.325818 4.302789,-4.325818 2.121093,0 4.120981,1.936861 4.120981,4.325818 z"
       style="fill:url(#be26d75a-0455-4f88-8e02-7405c5fe6a65);stroke-width:0.121205" />
    <path
       style="stroke-width:0.121205"
       id="path241"
       fill="#47e6b1"
       d="m 36.784606,10.028529 c 0,2.277448 -1.901712,4.120981 -3.928265,4.120981 -2.026553,0 -4.101589,-1.845957 -4.101589,-4.120981 0,-2.275024 2.076248,-4.120981 4.101589,-4.120981 2.025341,0 3.928265,1.843533 3.928265,4.120981 z" />
    <rect
       id="rect243"
       fill="url(#0b2f09ef-1575-4fe8-8a39-bc8009e41251)"
       height="2.2253299"
       width="2.5756133"
       y="16.35302"
       x="31.433388"
       style="fill:url(#0b2f09ef-1575-4fe8-8a39-bc8009e41251);stroke-width:0.121205" />
    <rect
       style="stroke-width:0.121205"
       id="rect245"
       fill="#e6e6e6"
       height="2.1089728"
       width="2.4398632"
       y="16.35302"
       x="31.50975" />
    <line
       id="line247"
       stroke-width="0.242411"
       stroke-miterlimit="10"
       stroke="#ad7676"
       fill="none"
       y2="14.425858"
       x2="34.022335"
       y1="16.35302"
       x1="33.920521" />
    <line
       id="line249"
       stroke-width="0.242411"
       stroke-miterlimit="10"
       stroke="#ad7676"
       fill="none"
       y2="14.425858"
       x2="31.432175"
       y1="16.35302"
       x1="31.570351" />
    <g
       transform="matrix(0.12120533,0,0,0.12120533,0,-1.77081)"
       id="g257"
       opacity="0.2">
      <path
         id="path251"
         fill="#ffffff"
         transform="translate(-10.88,-19)"
         d="m 275.61,170 a 1.17,1.17 0 0 0 0,0.38 0.54,0.54 0 0 0 0,0.14 0.79,0.79 0 0 0 0,-0.52 z" />
      <path
         id="path253"
         fill="#ffffff"
         transform="translate(-10.88,-19)"
         d="m 275.13,168.29 a 2.31,2.31 0 0 0 0,0.63 2.36,2.36 0 0 0 0,-0.63 z" />
      <path
         id="path255"
         fill="#ffffff"
         transform="translate(-10.88,-19)"
         d="m 278.78,169.2 c 0,0 0,-0.09 0,-0.14 V 169 c 0,0.07 0,0.14 0,0.2 z" />
    </g>
    <rect
       style="stroke-width:0.121205"
       id="rect259"
       fill="#47e6b1"
       height="0.31877002"
       width="0.9114641"
       y="14.296166"
       x="32.228497" />
    <g
       transform="matrix(0.12120533,0,0,0.12120533,0,-1.77081)"
       id="g263"
       opacity="0.2">
      <path
         id="path261"
         transform="translate(-10.88,-19)"
         d="m 282,82.21 h -1.19 c 16.26,0.7 31.21,15.65 31.21,34 0,18.35 -15,33.29 -31.21,34 H 282 c 16.71,0 32.41,-15.23 32.41,-34 0,-18.77 -15.73,-34 -32.41,-34 z" />
    </g>
    <g
       transform="matrix(0.12120533,0,0,0.12120533,0,-1.77081)"
       id="g267"
       opacity="0.2">
      <path
         id="path265"
         fill="#ffffff"
         transform="translate(-10.88,-19)"
         d="m 250,116.35 c 0,-18.52 16.64,-33.58 33.12,-34 h -0.72 c -16.71,0 -33.84,15.23 -33.84,34 0,18.77 17.13,34 33.84,34 h 0.72 C 266.68,149.93 250,134.87 250,116.35 Z" />
    </g>
    <rect
       style="stroke-width:0.121205"
       id="rect269"
       fill="#47e6b1"
       height="0.85328549"
       width="2.6180351"
       y="13.572572"
       x="31.417633" />
    <path
       style="stroke-width:0.121205"
       id="path271"
       opacity="0.2"
       fill="#ffffff"
       d="m 31.417634,6.205713 c 0,0 -3.110129,3.554952 0,7.645632 h 1.026609 c 0,0 -2.834993,-3.380416 -0.12969,-7.902587 l -0.506638,0.121205 z" />
    <path
       style="stroke-width:0.121205"
       id="path273"
       opacity="0.2"
       fill="#ffffff"
       d="m 34.122937,6.151171 c 0,0 3.110128,3.609494 0,7.700174 h -1.02661 c 0,0 2.834993,-3.408294 0.12969,-7.92804 l 0.506638,0.101812 z" />
    <path
       id="path275"
       fill="url(#e4790bd4-5801-4457-b473-8cffc98e274c)"
       d="m 5.953606,4.631256 c 0,1.687178 -1.413254,3.05195 -2.908928,3.05195 C 1.549004,7.683206 0,6.318434 0,4.631256 0,2.944078 1.538096,1.575669 3.044678,1.575669 c 1.506582,0 2.908928,1.367197 2.908928,3.055587 z"
       style="fill:url(#e4790bd4-5801-4457-b473-8cffc98e274c);stroke-width:0.121205" />
    <path
       style="stroke-width:0.121205"
       id="path277"
       fill="#6c63ff"
       d="m 5.810584,4.631256 c 0,1.608395 -1.344168,2.908928 -2.77439,2.908928 -1.430223,0 -2.900444,-1.300533 -2.900444,-2.908928 0,-1.608395 1.466584,-2.908928 2.896807,-2.908928 1.430223,0 2.778027,1.300533 2.778027,2.908928 z" />
    <rect
       id="rect279"
       fill="url(#3d7619d0-4e5d-43de-b852-961e26921f74)"
       height="1.570821"
       width="1.8192921"
       y="9.0988855"
       x="2.0301886"
       style="fill:url(#3d7619d0-4e5d-43de-b852-961e26921f74);stroke-width:0.121205" />
    <rect
       style="stroke-width:0.121205"
       id="rect281"
       fill="#6c63ff"
       height="1.4896135"
       width="1.7235398"
       y="9.0988855"
       x="2.0847311" />
    <line
       id="line283"
       stroke-width="0.242411"
       stroke-miterlimit="10"
       stroke="#ad7676"
       fill="none"
       y2="7.7365346"
       x2="3.8591776"
       y1="9.0988855"
       x1="3.7864542" />
    <line
       id="line285"
       stroke-width="0.242411"
       stroke-miterlimit="10"
       stroke="#ad7676"
       fill="none"
       y2="7.7365346"
       x2="2.0301886"
       y1="9.0988855"
       x1="2.1271544" />
    <g
       transform="matrix(0.12120533,0,0,0.12120533,0,-1.77081)"
       id="g293"
       opacity="0.2">
      <path
         id="path287"
         fill="#ffffff"
         transform="translate(-10.88,-19)"
         d="m 31.44,109.74 a 0.83,0.83 0 0 0 0,0.27 0.38,0.38 0 0 0 0,0.1 0.56,0.56 0 0 0 0,-0.37 z" />
      <path
         id="path289"
         fill="#ffffff"
         transform="translate(-10.88,-19)"
         d="m 31.1,108.5 a 1.63,1.63 0 0 0 0,0.44 1.67,1.67 0 0 0 0,-0.44 z" />
      <path
         id="path291"
         fill="#ffffff"
         transform="translate(-10.88,-19)"
         d="m 33.67,109.15 c 0,0 0,-0.06 0,-0.1 v 0 c 0,0 0,0.05 0,0.1 z" />
    </g>
    <rect
       style="stroke-width:0.121205"
       id="rect295"
       fill="#6c63ff"
       height="0.22422986"
       width="0.64360029"
       y="7.6456342"
       x="2.5913706" />
    <g
       transform="matrix(0.12120533,0,0,0.12120533,0,-1.77081)"
       id="g299"
       opacity="0.2">
      <path
         id="path297"
         transform="translate(-10.88,-19)"
         d="m 35.93,47.7 h -0.84 c 11.48,0.5 22,11.05 22,24 0,12.95 -10.56,23.51 -22,24 h 0.84 c 11.8,0 22.89,-10.76 22.89,-24 0,-13.24 -11.09,-24 -22.89,-24 z" />
    </g>
    <g
       transform="matrix(0.12120533,0,0,0.12120533,0,-1.77081)"
       id="g303"
       opacity="0.2">
      <path
         id="path301"
         fill="#ffffff"
         transform="translate(-10.88,-19)"
         d="m 13.38,71.82 c 0,-13.08 11.75,-23.72 23.39,-24 h -0.51 c -11.8,0 -23.9,10.76 -23.9,24 0,13.24 12.1,24 23.9,24 h 0.51 C 25.13,95.53 13.38,84.9 13.38,71.82 Z" />
    </g>
    <rect
       style="stroke-width:0.121205"
       id="rect305"
       fill="#6c63ff"
       height="0.60239047"
       width="1.8495934"
       y="7.1341443"
       x="2.0192804" />
    <path
       style="stroke-width:0.121205"
       id="path307"
       opacity="0.2"
       fill="#ffffff"
       d="m 2.019281,1.930801 c 0,0 -2.197453,2.511374 0,5.40091 h 0.727232 c 0,0 -2.004736,-2.39017 -0.09333,-5.587566 l -0.363616,0.08121 z" />
    <path
       style="stroke-width:0.121205"
       id="path309"
       opacity="0.2"
       fill="#ffffff"
       d="m 3.929477,1.892015 c 0,0 2.197452,2.545312 0,5.438483 H 3.202245 c 0,0 2.002312,-2.407137 0.09212,-5.599686 l 0.363616,0.07151 z" />
    <path
       id="path311"
       fill="url(#13b49d86-3a6c-4373-8a2b-23927da3a66d)"
       d="m 56.496228,3.055587 c 0,1.687178 -1.413254,3.05195 -2.908928,3.05195 -1.495673,0 -3.038617,-1.368408 -3.038617,-3.055587 C 50.548683,1.364772 52.080718,0 53.5873,0 c 1.506583,0 2.908928,1.367196 2.908928,3.055587 z"
       style="fill:url(#13b49d86-3a6c-4373-8a2b-23927da3a66d);stroke-width:0.121205" />
    <path
       style="stroke-width:0.121205"
       id="path313"
       fill="#f55f44"
       d="m 56.353206,3.055587 c 0,1.608394 -1.344167,2.908927 -2.77439,2.908927 -1.430223,0 -2.900443,-1.300533 -2.900443,-2.908927 0,-1.608395 1.466584,-2.908928 2.896807,-2.908928 1.430223,0 2.778026,1.300533 2.778026,2.908928 z" />
    <rect
       id="rect315"
       fill="url(#e13d1787-a849-404d-9971-b1babf765573)"
       height="1.570821"
       width="1.8192921"
       y="7.5232129"
       x="52.572807"
       style="fill:url(#e13d1787-a849-404d-9971-b1babf765573);stroke-width:0.121205" />
    <rect
       style="stroke-width:0.121205"
       id="rect317"
       fill="#e6e6e6"
       height="1.4896135"
       width="1.7235398"
       y="7.5232129"
       x="52.627357" />
    <line
       id="line319"
       stroke-width="0.242411"
       stroke-miterlimit="10"
       stroke="#ad7676"
       fill="none"
       y2="6.1608663"
       x2="54.401802"
       y1="7.5232129"
       x1="54.329079" />
    <line
       id="line321"
       stroke-width="0.242411"
       stroke-miterlimit="10"
       stroke="#ad7676"
       fill="none"
       y2="6.1608663"
       x2="52.572807"
       y1="7.5232129"
       x1="52.669777" />
    <g
       transform="matrix(0.12120533,0,0,0.12120533,0,-1.77081)"
       id="g329"
       opacity="0.2">
      <path
         id="path323"
         fill="#ffffff"
         transform="translate(-10.88,-19)"
         d="m 448.44,96.74 a 0.83,0.83 0 0 0 0,0.27 0.38,0.38 0 0 0 0,0.1 0.56,0.56 0 0 0 0,-0.37 z" />
      <path
         id="path325"
         fill="#ffffff"
         transform="translate(-10.88,-19)"
         d="m 448.1,95.5 a 1.63,1.63 0 0 0 0,0.44 1.67,1.67 0 0 0 0,-0.44 z" />
      <path
         id="path327"
         fill="#ffffff"
         transform="translate(-10.88,-19)"
         d="m 450.67,96.15 c 0,0 0,-0.06 0,-0.1 v 0 c 0,0 0,0.05 0,0.1 z" />
    </g>
    <rect
       style="stroke-width:0.121205"
       id="rect331"
       fill="#f55f44"
       height="0.22422986"
       width="0.64360029"
       y="6.069962"
       x="53.133995" />
    <g
       transform="matrix(0.12120533,0,0,0.12120533,0,-1.77081)"
       id="g335"
       opacity="0.2">
      <path
         id="path333"
         transform="translate(-10.88,-19)"
         d="m 452.93,34.7 h -0.84 c 11.48,0.5 22,11.05 22,24 0,12.95 -10.56,23.51 -22,24 h 0.84 c 11.8,0 22.89,-10.76 22.89,-24 0,-13.24 -11.09,-24 -22.89,-24 z" />
    </g>
    <g
       transform="matrix(0.12120533,0,0,0.12120533,0,-1.77081)"
       id="g339"
       opacity="0.2">
      <path
         id="path337"
         fill="#ffffff"
         transform="translate(-10.88,-19)"
         d="m 430.38,58.82 c 0,-13.08 11.75,-23.72 23.39,-24 h -0.51 c -11.8,0 -23.9,10.76 -23.9,24 0,13.24 12.1,24 23.9,24 h 0.51 c -11.64,-0.29 -23.39,-10.92 -23.39,-24 z" />
    </g>
    <rect
       style="stroke-width:0.121205"
       id="rect341"
       fill="#f55f44"
       height="0.60239047"
       width="1.8495934"
       y="5.558476"
       x="52.561905" />
    <path
       style="stroke-width:0.121205"
       id="path343"
       opacity="0.2"
       fill="#ffffff"
       d="m 52.561903,0.355132 c 0,0 -2.197452,2.511374 0,5.400909 h 0.727232 c 0,0 -2.004736,-2.390169 -0.09333,-5.587565 l -0.363616,0.08121 z" />
    <path
       style="stroke-width:0.121205"
       id="path345"
       opacity="0.2"
       fill="#ffffff"
       d="m 54.472099,0.316346 c 0,0 2.197453,2.545312 0,5.438483 h -0.727232 c 0,0 2.002312,-2.407138 0.09212,-5.599686 l 0.363616,0.07151 z" />
    <path
       id="path347"
       fill="url(#8d0e9b9d-b502-4368-bee2-132b20c20719)"
       d="m 15.559128,26.250651 c 0,2.504102 -2.092004,4.534291 -4.319758,4.534291 -2.227754,0 -4.511262,-2.030189 -4.511262,-4.534291 0,-2.504103 2.283508,-4.534292 4.511262,-4.534292 2.227754,0 4.319758,2.030189 4.319758,4.534292 z"
       style="fill:url(#8d0e9b9d-b502-4368-bee2-132b20c20719);stroke-width:0.121205" />
    <path
       style="stroke-width:0.121205"
       id="path349"
       fill="#f55f44"
       d="m 15.351867,26.250651 c 0,2.387745 -1.993828,4.322182 -4.120981,4.322182 -2.127154,0 -4.299153,-1.939286 -4.299153,-4.322182 0,-2.382897 2.181696,-4.322183 4.299153,-4.322183 2.117457,0 4.120981,1.934438 4.120981,4.322183 z" />
    <rect
       id="rect351"
       fill="url(#2bbe2ca3-b086-4129-9122-2e4a5aa8bf64)"
       height="2.3319905"
       width="2.6992428"
       y="32.88179"
       x="9.7424841"
       style="fill:url(#2bbe2ca3-b086-4129-9122-2e4a5aa8bf64);stroke-width:0.121205" />
    <rect
       style="stroke-width:0.121205"
       id="rect353"
       fill="#e6e6e6"
       height="2.2107852"
       width="2.5586445"
       y="32.88179"
       x="9.8224802" />
    <line
       id="line355"
       stroke-width="0.242411"
       stroke-miterlimit="10"
       stroke="#ad7676"
       fill="none"
       y2="30.861305"
       x2="12.45506"
       y1="32.88179"
       x1="12.348399" />
    <line
       id="line357"
       stroke-width="0.242411"
       stroke-miterlimit="10"
       stroke="#ad7676"
       fill="none"
       y2="30.861305"
       x2="9.7412729"
       y1="32.88179"
       x1="9.8855066" />
    <g
       transform="matrix(0.12120533,0,0,0.12120533,0,-1.77081)"
       id="g365"
       opacity="0.2">
      <path
         id="path359"
         fill="#ffffff"
         transform="translate(-10.88,-19)"
         d="m 96.9,306.47 a 1.23,1.23 0 0 0 0,0.4 0.57,0.57 0 0 0 0,0.14 0.83,0.83 0 0 0 0,-0.54 z" />
      <path
         id="path361"
         fill="#ffffff"
         transform="translate(-10.88,-19)"
         d="m 96.4,304.64 a 2.42,2.42 0 0 0 0,0.66 2.48,2.48 0 0 0 0,-0.66 z" />
      <path
         id="path363"
         fill="#ffffff"
         transform="translate(-10.88,-19)"
         d="m 100.22,305.6 c 0,0 0,-0.1 0,-0.14 v -0.07 c 0,0.07 0,0.14 0,0.21 z" />
    </g>
    <rect
       style="stroke-width:0.121205"
       id="rect367"
       fill="#f55f44"
       height="0.33331466"
       width="0.95509803"
       y="30.724342"
       x="10.575166" />
    <g
       transform="matrix(0.12120533,0,0,0.12120533,0,-1.77081)"
       id="g371"
       opacity="0.2">
      <path
         id="path369"
         transform="translate(-10.88,-19)"
         d="m 103.57,214.4 h -1.25 c 17,0.74 32.72,16.41 32.72,35.63 0,19.22 -15.68,34.97 -32.72,35.67 h 1.25 c 17.52,0 34,-16 34,-35.66 0,-19.66 -16.48,-35.64 -34,-35.64 z" />
    </g>
    <g
       transform="matrix(0.12120533,0,0,0.12120533,0,-1.77081)"
       id="g375"
       opacity="0.2">
      <path
         id="path373"
         fill="#ffffff"
         transform="translate(-10.88,-19)"
         d="m 70.1,250.19 c 0,-19.41 17.45,-35.2 34.72,-35.65 h -0.75 c -17.52,0 -35.47,16 -35.47,35.66 0,19.66 18,35.66 35.47,35.66 h 0.75 C 87.54,285.39 70.1,269.6 70.1,250.19 Z" />
    </g>
    <rect
       style="stroke-width:0.121205"
       id="rect377"
       fill="#f55f44"
       height="0.89449537"
       width="2.7453008"
       y="29.966805"
       x="9.7255163" />
    <path
       style="stroke-width:0.121205"
       id="path379"
       opacity="0.2"
       fill="#ffffff"
       d="m 9.725516,22.24239 c 0,0 -3.260424,3.727064 0,8.015309 h 1.076303 c 0,0 -2.971955,-3.545256 -0.13575,-8.284385 L 10.13519,22.09452 Z" />
    <path
       style="stroke-width:0.121205"
       id="path381"
       opacity="0.2"
       fill="#ffffff"
       d="m 12.56172,22.186636 c 0,0 3.260424,3.78403 0,8.072275 h -1.076303 c 0,0 2.973167,-3.573133 0.136962,-8.31105 l 0.530879,0.106661 z" />
  </g>
</svg>
