<?xml version="1.0" encoding="UTF-8" standalone="no"?>
<svg
   xmlns:dc="http://purl.org/dc/elements/1.1/"
   xmlns:cc="http://creativecommons.org/ns#"
   xmlns:rdf="http://www.w3.org/1999/02/22-rdf-syntax-ns#"
   xmlns:svg="http://www.w3.org/2000/svg"
   xmlns="http://www.w3.org/2000/svg"
   xmlns:sodipodi="http://sodipodi.sourceforge.net/DTD/sodipodi-0.dtd"
   xmlns:inkscape="http://www.inkscape.org/namespaces/inkscape"
   inkscape:version="1.0 (4035a4f, 2020-05-01)"
   sodipodi:docname="latex-icon.svg"
   id="svg448"
   version="1.1"
   viewBox="0 0 143 143"
   preserveAspectRatio="xMidYMid meet"
   height="100%"
   focusable="false"
   aria-hidden="true">
  <metadata
     id="metadata454">
    <rdf:RDF>
      <cc:Work
         rdf:about="">
        <dc:format>image/svg+xml</dc:format>
        <dc:type
           rdf:resource="http://purl.org/dc/dcmitype/StillImage" />
      </cc:Work>
    </rdf:RDF>
  </metadata>
  <defs
     id="defs452" />
  <sodipodi:namedview
     inkscape:current-layer="svg448"
     inkscape:window-maximized="1"
     inkscape:window-y="23"
     inkscape:window-x="0"
     inkscape:cy="74.669161"
     inkscape:cx="95.250854"
     inkscape:zoom="2.0402503"
     showgrid="false"
     id="namedview450"
     inkscape:window-height="755"
     inkscape:window-width="1280"
     inkscape:pageshadow="2"
     inkscape:pageopacity="0"
     guidetolerance="10"
     gridtolerance="10"
     objecttolerance="10"
     borderopacity="1"
     bordercolor="#666666"
     pagecolor="#ffffff" />
  <rect
     class="icon-background"
     fill="#140f41"
     id="rect903"
     width="143.08928"
     height="143.08928"
     x="0"
     y="0"
     ry="23.673592" />
  <path
     class="latex__shape"
     style="stroke-width:5.18383"
     id="path446"
     fill="#626262"
     d="m 21.099411,22.96469 c 1.207835,2.177212 2.472691,4.03821 3.784202,5.650383 h -0.01038 a 11.990217,11.990217 0 0 0 -1.850629,-0.13478 14.006729,14.006729 0 0 0 -4.100416,0.673899 c 2.560816,2.151293 4.72766,3.716812 6.640497,4.924647 4.691373,1.524047 9.911497,4.053761 14.359232,6.884136 2.223869,1.415188 4.20928,2.814826 5.769612,4.043392 1.56034,1.223391 2.939233,2.441587 3.219163,2.975522 0.27993,0.528757 -0.0048,0.720557 -0.425071,0.311032 -0.419896,-0.40434 -1.565526,-1.653647 -3.11031,-2.866658 A 73.62605,73.62605 0 0 0 39.63681,41.408785 c -4.017477,-2.54008 -10.274369,-4.976484 -14.074123,-7.329946 -2.954788,-0.943459 -6.127296,-1.073055 -9.859659,0.699817 2.726698,1.710667 5.01277,2.94442 7.013731,3.867144 5.722958,0.803494 11.71029,3.602768 16.717881,6.780463 2.503791,1.596618 4.691372,3.193238 6.324279,4.499564 0.81905,0.647983 1.503311,1.228575 2.021699,1.700305 0.508018,0.466545 0.912357,0.803495 1.026397,1.088601 0.15552,0.383608 -0.103678,0.53912 -0.440628,0.295478 -0.165882,-0.11404 -0.440627,-0.52875 -0.943459,-0.990109 a 38.749188,38.749188 0 0 0 -1.99577,-1.689935 c -1.617359,-1.295956 -3.784201,-2.866658 -6.272445,-4.44773 -4.63435,-2.908131 -11.575509,-5.246043 -16.458685,-7.236637 -3.115487,-0.570223 -6.339833,-0.311031 -9.870027,2.016513 2.327543,1.036768 4.338872,1.814343 6.127296,2.405301 -2.934052,0.103677 -5.847368,1.021219 -8.688112,3.71681 2.472691,0.611695 4.587697,1.026405 6.448694,1.295957 -2.280889,0.466552 -4.509939,1.555154 -6.681966,3.732365 1.679563,0.362867 3.193243,0.637612 4.577329,0.844968 -1.705483,0.824226 -3.317657,2.104636 -4.789867,4.058945 1.933571,0.155512 3.644238,0.217717 5.183838,0.222902 -1.866182,0.860522 -3.607951,2.218684 -5.163102,4.406265 2.762985,0.134781 5.074977,0.12441 7.06557,0.01039 -2.187579,0.891616 -4.209276,2.405298 -5.930311,5.023137 a 60.44355,60.44355 0 0 0 8.444473,-0.399155 l -0.04147,0.01039 c 5.132,-0.378414 11.922828,0.658352 15.37008,4.395894 0.26956,0.295486 -0.124412,0.611696 -0.37842,0.383609 -3.359127,-3.006624 -7.744654,-4.287034 -14.99166,-4.779503 -2.820006,0.777577 -5.427477,2.317176 -7.573586,5.572626 2.773353,0.03627 5.085345,-0.05704 7.075938,-0.243634 -2.436404,1.321874 -4.515123,3.333203 -5.894024,6.75972 2.503794,-0.47173 4.603249,-0.98493 6.412408,-1.51886 -1.881733,1.37371 -3.467987,3.29692 -4.525491,6.18951 1.679564,-0.37324 3.167325,-0.75685 4.509939,-1.14563 a 13.063272,13.063272 0 0 0 -2.659309,5.68148 c 1.819527,-0.67389 3.395415,-1.32706 4.800235,-1.96985 h 0.01037 c 1.467027,-1.19229 3.680525,-2.36902 6.681968,-3.22436 2.623022,-0.75165 5.608912,-1.47221 8.5637,-1.56033 a 18.817332,18.817332 0 0 1 1.264856,0 c 0.518384,0.0156 0.326582,0.53912 0.0311,0.53394 -3.773834,-0.0415 -6.749357,0.68427 -9.709328,1.52922 a 50.801612,50.801612 0 0 0 -6.832298,2.72671 12.959595,12.959595 0 0 0 -2.856295,6.17395 c 2.566,-1.0264 4.660271,-2.01132 6.417592,-2.94442 -1.612175,1.72621 -2.814825,3.93972 -3.291738,7.03448 a 61.138184,61.138184 0 0 0 7.475095,-3.85679 c -2.239418,1.87655 -3.960453,4.37516 -4.556594,8.23193 a 56.037287,56.037287 0 0 0 9.154657,-4.96092 c -0.953825,1.92838 -1.456658,4.18335 -1.218201,6.99818 3.950084,-3.03255 6.453877,-5.47414 8.314878,-7.63579 a 13.840847,13.840847 0 0 0 0.39397,4.58769 c 2.327547,-4.00192 4.6499,-5.66593 7.013734,-7.03965 -2.9185,1.91802 -2.405298,3.47835 -2.405298,5.25641 3.540557,-3.73237 8.480758,-7.68764 9.989255,-10.1655 -2.021699,3.03255 -2.835564,5.90957 -3.369499,8.44447 -10.336574,5.46895 -16.64012,6.8945 -23.690139,9.08207 2.737066,1.00567 5.676302,1.98542 4.463285,3.37988 l -3.239898,3.22952 c 2.06835,-0.6428 4.172988,-1.55515 6.002884,-0.30066 -0.176252,1.69511 -2.322361,2.55563 -4.147072,3.54056 3.21398,-1.16118 3.918982,-0.8968 4.769131,-0.62206 0.414708,2.02688 -1.052319,3.12067 -2.006145,4.4581 8.112704,-6.16877 18.692921,-11.03121 26.152467,-13.06845 10.481717,-3.5302 24.01155,-7.20554 27.68689,-16.15802 1.21819,-4.90392 2.47786,-9.87523 3.66497,-14.732482 -0.57541,-0.181437 -1.27004,-0.326579 -1.81434,-0.689446 a 3.3954138,3.3954138 0 0 1 -1.21303,-1.549976 c -1.30633,0.342134 -2.28608,0.160697 -2.90296,-0.456184 -0.61168,-0.606509 -0.87088,-1.524043 -1.05231,-2.540078 -1.05751,0.217725 -1.88692,0.08813 -2.4364,-0.39397 -0.59098,-0.528749 -0.88126,-1.347799 -1.02641,-2.296443 l -0.0311,-0.212532 0.1918,-0.07254 a 4.3544239,4.3544239 0 0 0 1.55516,-1.01085 1.3270625,1.3270625 0 0 0 0.36805,-1.166362 l -0.031,-0.191799 0.1555,-0.08295 c 0.84497,-0.4821 1.79362,-0.870885 2.22906,-1.446292 a 1.4359231,1.4359231 0 0 0 0.25919,-1.088602 4.5928804,4.5928804 0 0 0 -0.79831,-1.866186 l -0.14515,-0.207356 0.20735,-0.139957 c 0.6117,-0.466553 1.27523,-0.912357 1.607,-1.332251 0.16588,-0.212533 0.23845,-0.399155 0.23327,-0.570223 0,-0.171067 -0.0777,-0.368052 -0.33695,-0.616872 l -0.50283,-0.487285 0.69981,0.03108 c 1.09898,0.04666 2.05281,-0.03108 2.79409,-0.274736 a 2.5919189,2.5919189 0 0 0 1.53442,-1.161185 2.3586463,2.3586463 0 0 1 -0.0259,-0.3836 2.3586463,2.3586463 0 0 1 2.35865,-2.358649 2.3586463,2.3586463 0 0 1 2.35864,2.358649 2.3586463,2.3586463 0 0 1 -0.11404,0.684262 c 0.95382,0.08295 1.861,0.04146 2.71633,-0.331764 l 0.19181,-0.06224 c 1.22339,-0.435443 1.72622,0.233272 3.73236,-2.379381 -8.76067,-11.357793 -21.5544,-3.276186 -25.80514,8.423736 -1.0886,2.991068 -7.28329,2.991068 -9.082078,-0.01039 C 61.025333,45.078942 39.455381,28.92092 21.099411,22.96469 Z m 3.79457,5.655567 c 1.306326,-0.04666 5.857736,2.348278 6.790827,2.695596 a 122.33858,122.33858 0 0 1 8.123071,5.012771 c 2.617838,1.74177 4.981672,3.436885 6.604217,4.675822 0.808671,0.62206 1.435922,1.130076 1.81952,1.477394 0.191809,0.176249 0.331765,0.295482 0.41471,0.425076 a 0.4095232,0.4095232 0 0 1 0.05185,0.11404 0.29029492,0.29029492 0 0 1 -0.02077,0.233272 c -0.05185,0.103677 -0.155513,0.155521 -0.222902,0.155521 a 0.38878784,0.38878784 0 0 1 -0.139965,0 c -0.295478,0.0048 -1.047137,-0.844967 -2.571189,-2.151295 A 121.44177,121.44177 0 0 0 31.446352,31.792767 c -2.612654,-1.451476 -4.955749,-2.799273 -6.552371,-3.17251 z m -5.919943,14.447357 c 4.209276,0 9.797454,1.892104 15.193829,4.769132 5.406739,2.887399 10.590582,6.319094 13.094372,9.222048 0.342135,0.39397 -0.09849,0.637612 -0.399155,0.352497 -2.695598,-2.571181 -7.57877,-6.251704 -12.949226,-9.113185 -3.302104,-1.741769 -11.134882,-5.20976 -14.93982,-5.225307 z m -2.218682,5.012767 c 5.785162,0.07773 12.17165,2.311999 17.790931,5.16311 2.804456,1.425551 5.308249,2.954781 7.23664,4.31295 1.928385,1.363346 3.488724,2.711145 3.804934,3.405778 0.321402,0.689455 -0.0985,0.673899 -0.445813,0.279929 A 22.829622,22.829622 0 0 0 41.487443,57.991883 59.593401,59.593401 0 0 0 34.313014,53.720398 C 29.320978,51.221792 22.473128,48.920163 16.755356,48.080381 Z m 0.839781,4.224836 c 0.342133,-0.01558 0.68945,0 1.041952,0.03108 4.261114,0.368053 8.911018,1.897282 13.130661,3.877508 5.634831,2.638571 10.549112,5.9977 12.617462,8.63627 0.181437,0.233273 -0.05704,0.689455 -0.40434,0.331774 -2.218684,-2.28089 -6.842666,-5.868106 -12.425659,-8.485943 -4.732844,-2.177212 -11.834703,-4.509943 -16.914864,-4.038214 0.974562,-0.12441 1.933572,-0.316217 2.954788,-0.352497 z m 85.745873,0.06735 c -1.89211,2.462327 -2.74744,2.203137 -3.63388,2.410492 0.4821,2.23423 1.81435,3.04291 3.03773,4.001917 10.47136,-1.928383 22.23867,-1.420366 31.51774,-1.166362 l -30.91122,-5.235677 z m -4.16262,2.560819 c -0.98493,0.399154 -2.00615,0.409525 -3.02737,0.311032 a 2.3586463,2.3586463 0 0 1 -2.02169,1.161177 2.3586463,2.3586463 0 0 1 -2.14611,-1.389264 3.1932442,3.1932442 0 0 1 -1.56034,1.088601 8.1386254,8.1386254 0 0 1 -2.55044,0.279931 c 0.10367,0.181429 0.27992,0.347312 0.27992,0.533934 a 1.4255555,1.4255555 0 0 1 -0.36286,0.901987 c -0.37842,0.482101 -0.97457,0.891617 -1.52924,1.295957 a 4.9039107,4.9039107 0 0 1 0.77239,1.871371 2.0113291,2.0113291 0 0 1 -0.36286,1.47221 c -0.54949,0.725735 -1.48777,1.093787 -2.27052,1.529228 a 1.9387554,1.9387554 0 0 1 -0.47692,1.384088 4.5928804,4.5928804 0 0 1 -1.53961,1.021211 c 0.13997,0.813865 0.38362,1.467032 0.79832,1.835085 0.44581,0.393969 1.09897,0.539119 2.20832,0.254005 l 0.28511,-0.08294 0.0518,0.285107 c 0.17626,1.073055 0.45618,2.000959 0.96937,2.508976 0.51839,0.513203 1.25968,0.699817 2.6023,0.285116 l 0.254,-0.08295 0.0777,0.25919 a 2.7474341,2.7474341 0 0 0 1.08861,1.461848 c 0.45099,0.311032 1.29597,0.580592 1.86619,0.762021 4.13669,-4.499572 7.90534,-9.18576 9.76635,-14.825777 -1.16638,-0.912357 -2.63339,-1.736584 -3.17252,-4.12115 z M 17.284107,56.84107 a 34.643589,34.643589 0 0 1 14.359231,3.317655 c 4.769131,2.229054 8.594806,4.867625 10.238082,6.775276 0.3836,0.450998 -0.103677,0.632427 -0.378422,0.383608 A 42.434897,42.434897 0 0 0 31.410065,60.630451 c -4.68619,-2.156471 -11.383708,-3.348758 -16.380928,-3.721995 0.751657,-0.05185 1.503313,-0.07254 2.25497,-0.06743 z m 2.239417,4.230012 c 3.162141,0.103677 6.42796,0.803495 9.367196,1.824715 3.918982,1.358161 7.361049,3.182875 9.05098,5.080156 0.22809,0.25919 -0.02591,0.6739 -0.373235,0.362868 -1.80916,-1.575887 -4.986853,-3.597578 -8.848812,-4.940193 -2.980707,-1.010849 -8.377082,-1.902474 -11.767312,-2.052801 1.016032,-0.108863 1.518865,-0.311032 2.571183,-0.274745 z m 4.629168,9.232418 c 0.259193,0 0.533935,0.02077 0.808679,0.04146 2.197946,0.176244 4.59288,0.689446 6.95671,2.104635 0.222905,0.13478 0.254009,0.705003 -0.259191,0.466545 -4.437365,-2.083904 -6.878954,-2.534893 -12.741874,-1.596618 1.752137,-0.585778 3.379862,-1.031591 5.235676,-1.016035 z m 2.156476,4.06413 c 1.555152,0.02077 3.177693,0.321395 5.17347,1.119704 0.22809,0.0933 0.414708,0.653166 -0.171066,0.487286 -4.442549,-1.259677 -6.049538,-1.700305 -11.860621,0.53912 1.456658,-1.187102 3.213979,-1.902476 5.297882,-2.08909 0.518384,-0.04666 1.036767,-0.06735 1.555152,-0.05704 z m 7.563221,3.53019 c 0.808678,0 1.612173,0.0467 2.384565,0.13478 0.274743,0.0259 0.285111,0.52876 -0.03629,0.51839 a 40.95232,40.95232 0 0 0 -9.527894,0.59095 c -1.259673,0.23846 -2.18758,0.22809 -7.278109,2.38457 1.482578,-1.21302 4.121151,-2.33791 7.184799,-2.90295 2.301625,-0.41471 4.841705,-0.7361 7.272926,-0.72574 z m 6.925606,4.69656 c 0.181439,-0.0259 0.544305,0.43544 0.08812,0.51839 -3.784199,0.705 -6.448692,1.38926 -9.304986,2.35864 -1.119709,0.3836 -3.001442,1.07306 -6.438327,3.0481 1.342614,-1.39446 3.395413,-2.56082 6.287996,-3.54575 a 55.207874,55.207874 0 0 1 9.367194,-2.37938 z m 1.60699,2.63339 c 0.388785,-0.0622 0.513202,0.45099 0.114047,0.52875 -6.308733,1.24412 -9.123557,2.88221 -13.172135,5.93031 2.607471,-2.71115 6.718255,-5.44303 13.063273,-6.45906 z m 3.089569,2.31717 a 0.49246459,0.49246459 0 0 1 0.155511,0 c 0.311033,0.0571 0.357691,0.46136 -0.04666,0.51839 -4.520313,0.6739 -7.666899,2.87703 -11.699925,6.90487 1.529231,-2.56082 5.214941,-6.43833 11.591062,-7.42326 z m 1.923206,2.02689 c 0.238449,-0.0259 0.601325,0.37842 0.129595,0.51838 -1.00048,0.29029 -2.244601,0.77758 -3.473176,1.55514 -0.943459,0.6117 -1.565517,1.04714 -3.110301,2.6334 0.580592,-1.27004 1.549969,-2.25497 2.830379,-3.06365 1.275224,-0.81386 2.6282,-1.51886 3.623503,-1.64327 z" />
</svg>
