<svg height="100%" xmlns="http://www.w3.org/2000/svg" viewBox="0 0 242 205">
 <!-- Created with Method Draw - http://github.com/duopixel/Method-Draw/ -->

 <g>
  <title>background</title>
  <!-- <rect x="-1" y="-1" width="244" height="207" id="canvas_background" fill="#fff"/> -->
  <g id="canvasGrid" display="none">
   <rect id="svg_1" width="100%" height="100%" x="0" y="0" stroke-width="0" fill="url(#gridpattern)"/>
  </g>
 </g>
 <g>
  <title>Layer 1</title>
  <circle cx="11523.37584" cy="8618.11521" r="209.48799" fill="#00bf5f" id="svg_14" transform="matrix(0.48595549365640267,0,0,0.48595549365640267,-5474.759963209127,-4085.800618984838) " stroke="null"/>
  <circle fill="#7f0000" cx="11512.07592" cy="8532.88235" r="30.80706" opacity="0.2" id="svg_15" transform="matrix(0.48595549365640267,0,0,0.48595549365640267,-5474.759963209127,-4085.800618984838) " stroke="null"/>
  <circle fill="#7f0000" cx="11512.07592" cy="8739.28964" r="53.3989" opacity="0.2" id="svg_16" transform="matrix(0.48595549365640267,0,0,0.48595549365640267,-5474.759963209127,-4085.800618984838) " stroke="null"/>
  <circle fill="#7f0000" cx="11357.01373" cy="8658.16439" r="13.34972" opacity="0.2" id="svg_17" transform="matrix(0.48595549365640267,0,0,0.48595549365640267,-5474.759963209127,-4085.800618984838) " stroke="null"/>
  <circle fill="#7f0000" cx="11584.89826" cy="8486.56174" r="7.09663" opacity="0.2" id="svg_19" transform="matrix(0.48595549365640267,0,0,0.48595549365640267,-5474.759963209127,-4085.800618984838) " stroke="null"/>
  <circle fill="#7f0000" cx="11502.8338" cy="8627.35733" r="9.24212" opacity="0.2" id="svg_20" transform="matrix(0.48595549365640267,0,0,0.48595549365640267,-5474.759963209127,-4085.800618984838) " stroke="null"/>
  <circle fill="#7f0000" cx="11677.50281" cy="8577.14916" r="7.09663" opacity="0.2" id="svg_22" transform="matrix(0.48595549365640267,0,0,0.48595549365640267,-5474.759963209127,-4085.800618984838) " stroke="null"/>
  <circle fill="#7f0000" cx="11618.89605" cy="8649.52741" r="10.25068" opacity="0.2" id="svg_24" transform="matrix(0.48595549365640267,0,0,0.48595549365640267,-5474.759963209127,-4085.800618984838) " stroke="null"/>
  <circle fill="#7f0000" cx="11391.9284" cy="8532.88235" r="13.34972" opacity="0.2" id="svg_25" transform="matrix(0.48595549365640267,0,0,0.48595549365640267,-5474.759963209127,-4085.800618984838) " stroke="null"/>
  <path d="m147.14451,160.90002a284.78105,284.78105 0 0 1 -32.03871,-1.85138c-31.99094,-3.63307 -61.49553,-12.21789 -83.07852,-24.17268c-21.8471,-12.10144 -33.02629,-26.27113 -31.47874,-39.89889c1.07213,-9.44159 10.19792,-17.89242 27.89857,-25.83448a0.99829,0.99829 0 0 1 0.81726,1.82165c-17.0023,7.62822 -25.74651,15.55663 -26.73239,24.23798c-1.45079,12.77347 9.36776,26.24286 30.46267,37.92764c21.35882,11.83098 50.59975,20.33103 82.33631,23.93534c31.73678,3.60433 62.13881,1.8772 85.6068,-4.86261c23.17803,-6.65696 36.74147,-17.35733 38.19177,-30.1308c0.98149,-8.64139 -3.7783,-17.80373 -13.76469,-26.49725a0.99826,0.99826 0 0 1 1.31092,-1.50586c10.50397,9.14431 15.49621,18.90558 14.43725,28.22826c-1.54777,13.62777 -15.6195,24.93 -39.62404,31.8238c-15.62907,4.48882 -34.28367,6.77928 -54.34448,6.77928l0.00002,0z" fill="white" id="svg_26" stroke="null"/>
 </g>
</svg>