<svg height="100%" xmlns="http://www.w3.org/2000/svg" xmlns:xlink="http://www.w3.org/1999/xlink" viewBox="0 0 590 245">
 <defs>
  <linearGradient y2="0" x2="0.5" y1="1.000044" x1="0.5" id="aba94383-0ea8-4a3d-bf3d-6bf7d0bb624b">
   <stop stop-opacity="0.25" stop-color="gray" offset="0"/>
   <stop stop-opacity="0.12" stop-color="gray" offset="0.54"/>
   <stop stop-opacity="0.1" stop-color="gray" offset="1"/>
  </linearGradient>
  <linearGradient xlink:href="#aba94383-0ea8-4a3d-bf3d-6bf7d0bb624b" gradientTransform="matrix(0.95, 0.32, -0.32, 0.95, 752.71, -1245.02)" y2="1353.95" x2="334.27" y1="1539.38" x1="334.27" id="ba3c64e7-a915-4515-a2e7-88140805555d"/>
 </defs>
 <title>Taken</title>
 <g>
  <title>background</title>
  <rect fill="none" id="canvas_background" height="247" width="592" y="-1" x="-1"/>
 </g>
 <g>
  <title>Layer 1</title>
  <g id="svg_1" opacity="0.8">
   <ellipse id="svg_2" fill="url(#aba94383-0ea8-4a3d-bf3d-6bf7d0bb624b)" ry="113.46" rx="146.46" cy="114.738518" cx="294.428183"/>
  </g>
  <ellipse id="svg_3" fill="#6c63ff" ry="110.94" rx="143.21" cy="114.738518" cx="294.428183"/>
  <path id="svg_4" opacity="0.1" fill="#fff" d="m174.368183,127.068519c0,-61.27 64.11,-110.94 143.2,-110.94a175.54,175.54 0 0 1 71.36,14.73c-25.17,-17 -58.1,-27.33 -94.14,-27.33c-79.09,0 -143.21,49.67 -143.21,110.94c0,41.14 28.91,77.05 71.86,96.21c-30.07,-20.34 -49.07,-50.25 -49.07,-83.61z"/>
  <g id="svg_14" opacity="0.5">
   <g id="svg_15" opacity="0.3">
    <path id="svg_16" fill="url(#ba3c64e7-a915-4515-a2e7-88140805555d)" d="m345.098183,155.648519l12.33,-36.59a62.66,62.66 0 0 0 -23.2,-70.89l0.1,-0.06a61.48,61.48 0 0 0 -15.79,-8l0,0l-0.17,-0.06l-0.19,-0.06l0,0a61.55,61.55 0 0 0 -16.9,-3.18a59.28,59.28 0 0 0 -6.11,0a62.32,62.32 0 0 0 -10.49,1.45c-1,0.22 -2,0.47 -2.91,0.74s-1.93,0.56 -2.88,0.87c-1.9,0.63 -3.77,1.34 -5.6,2.15c-0.92,0.4 -1.83,0.82 -2.72,1.27a61.47,61.47 0 0 0 -7.75,4.56c-0.83,0.57 -1.64,1.16 -2.44,1.76a62,62 0 0 0 -21.24,29.6l-19.38,57.65a61.86,61.86 0 0 0 -2.68,28.12c0.2,1.45 0.45,2.89 0.74,4.32s0.65,2.84 1,4.24c0.27,0.93 0.55,1.86 0.86,2.78c0.46,1.37 1,2.74 1.51,4.08c0.37,0.89 0.76,1.78 1.17,2.66c0.81,1.75 1.71,3.46 2.68,5.13s2,3.3 3.16,4.88c0.84,1.18 1.73,2.34 2.65,3.46c1.24,1.5 2.54,2.95 3.92,4.33a61.81,61.81 0 0 0 21,13.89l0,0l0,0l0.34,0.14a21.66,21.66 0 0 1 1.4,-2.17c3,-4.11 8.22,-7 13.19,-5.92c0.36,0.08 0.72,0.19 1.08,0.3c2.52,0.89 5,2.48 7.43,3.26a6.66,6.66 0 0 0 5.61,-0.07c4.86,-2.59 3.06,-10.76 7.23,-14.34a6.5,6.5 0 0 1 0.61,-0.46a1.88,1.88 0 0 1 -0.16,-0.23c3.22,-2 7.68,-0.67 11.39,0.62c4,1.41 9.22,2.36 12,-0.91c1.88,-2.24 1.74,-5.65 3.53,-8c2.08,-2.7 6,-3 9.39,-2.52l0.17,0c6.5,2.68 13.6,-1.77 13.1,-8.78c-0.59,-9.3 2.35,-18.11 3.02,-20.02z"/>
   </g>
   <path id="svg_17" fill="#fff" d="m258.638183,209.638519c2.92,-4 7.93,-6.8 12.73,-5.71s9.35,5.66 13.62,3.37c5.84,-3.12 1.7,-14.59 11.18,-15.44a12.44,12.44 0 0 1 5.77,1c4,1.63 10.26,3.47 13.34,-0.2c1.81,-2.16 1.68,-5.45 3.41,-7.69c2,-2.6 5.81,-2.93 9.06,-2.43l0.16,0.05c6.27,2.59 13.13,-1.71 12.64,-8.47c-0.63,-9 2.23,-17.48 2.85,-19.32l11.88,-35.31a60.38,60.38 0 0 0 -37.85,-76.29l0,0a60.38,60.38 0 0 0 -76.27,37.86l-18.73,55.53a60.39,60.39 0 0 0 34.82,75.15a21.47,21.47 0 0 1 1.39,-2.1z"/>
   <circle id="svg_18" opacity="0.2" r="6.51" cy="75.508518" cx="280.778183"/>
   <circle id="svg_19" opacity="0.2" r="6.51" cy="87.958518" cx="317.798183"/>
  </g>
  <path id="svg_20" opacity="0.1" d="m431.948183,81.858519a87.52,87.52 0 0 1 2.79,22c0,61.27 -64.11,110.94 -143.2,110.94c-64.73,-0.04 -119.42,-33.3 -137.11,-78.94c13.14,50.77 71,89 140.41,89c79.09,0 143.21,-49.67 143.21,-110.94a88.16,88.16 0 0 0 -6.1,-32.06z"/>
  <path id="svg_23" fill="#fff" d="m294.428183,88.258519c-158.18,0 -286.42,33.51 -286.42,74.86l572.84,0c0,-41.35 -128.24,-74.86 -286.42,-74.86z"/>
  <path id="svg_24" fill="#fff" d="m294.428183,237.968519c158.18,0 286.42,-33.51 286.42,-74.85l-572.84,0c0,41.34 128.24,74.85 286.42,74.85z"/>
  <path id="svg_25" opacity="0.05" d="m294.428183,237.968519c158.18,0 286.42,-33.51 286.42,-74.85l-572.84,0c0,41.34 128.24,74.85 286.42,74.85z"/>
  <rect id="svg_26" opacity="0.05" rx="17.22" height="39.06" width="273.4" y="143.578518" x="157.728183"/>
  <ellipse id="svg_44" opacity="0.05" ry="7" rx="34" cy="136.858518" cx="92.142456"/>
  <ellipse id="svg_45" opacity="0.05" ry="7" rx="34" cy="189.858518" cx="92.142456"/>
  <ellipse id="svg_46" opacity="0.05" ry="7" rx="34" cy="136.858518" cx="483.428183"/>
  <ellipse id="svg_47" opacity="0.05" ry="7" rx="34" cy="189.858518" cx="483.428183"/>
  <ellipse id="svg_48" opacity="0.05" ry="7" rx="34" cy="106.858518" cx="294.428183"/>
  <ellipse id="svg_49" opacity="0.05" ry="7" rx="34" cy="33.858518" cx="319.428183"/>
  <ellipse id="svg_50" opacity="0.05" ry="7" rx="34" cy="63.858518" cx="254.428183"/>
  <ellipse id="svg_51" opacity="0.05" ry="7" rx="34" cy="76.858518" cx="379.428183"/>
  <ellipse id="svg_52" opacity="0.05" ry="7" rx="34" cy="210.858518" cx="294.428183"/>
 </g>
</svg>